<svg width="150" height="150" viewBox="0 0 150 150" fill="none" xmlns="http://www.w3.org/2000/svg" style="width: 200px; height: 200px;"><style>
     .idea9 {animation:idea9 4.5s infinite;}
     @keyframes idea9 {
         0%{transform: translate3d(0, -8px, 0);}
         50%{transform: translate3d(0, 8px, 0);}
         100%{transform: translate3d(0, -8px, 0);}
     }
     @media (prefers-reduced-motion: reduce) {
         .idea9 {
             animation: none;
         }
     }
    </style><path class="fillCls4" d="M125.945 99.3174C125.945 99.3174 132.091 120.06 124.217 125.438C116.465 130.733 108.852 114.106 108.852 114.106L125.945 99.3174Z" fill="#DEF4FF" stroke-width="2px" style="animation-duration: 4.5s;"></path><path class="fillCls2" d="M87.5339 44.9635C87.5339 44.9635 86.1894 54.5666 89.0704 55.9111C91.9513 57.2555 98.6735 58.2158 98.6735 58.2158L84.6529 76.8459L68.5196 62.8253L65.0625 56.1031C65.0625 56.1031 70.8244 55.527 71.4006 48.0365C71.9768 40.546 71.0165 32.8635 71.0165 32.8635L86.3815 37.8572L87.5339 44.9635Z" fill="#FBD482" stroke-width="2px" style="animation-duration: 4.5s;"></path><path class="fillCls1" d="M93.4877 19.9954C93.4877 19.9954 96.9449 40.3541 93.4877 47.0763C93.4877 47.0763 92.1433 48.9969 89.2623 49.5731C86.3814 50.1493 76.3941 47.4604 73.8973 40.9303C71.4005 34.4002 71.9767 35.9367 71.9767 35.9367C71.9767 35.9367 64.8704 38.4335 65.0624 31.5192C65.2545 24.6049 70.0561 26.7176 70.0561 26.7176L76.7783 15.3859L88.11 14.6177L93.4877 19.9954Z" fill="#FFDE99" stroke-width="2px" style="animation-duration: 4.5s;"></path><path class="fillCls3" d="M77.9308 18.8429C77.9308 18.8429 75.0499 31.327 71.5928 29.4064C68.1356 27.4857 66.8565 25.9819 65.5754 28.5575C65.5754 28.5575 60.069 28.8302 61.4134 22.8762C61.4134 22.8762 53.7309 16.7302 62.5658 7.5112C71.4007 -1.70782 71.7848 10.2001 78.507 8.66357C85.2292 7.12707 88.3022 -1.13164 91.7594 3.28581C95.2165 7.70326 94.0641 6.16676 94.0641 6.16676C94.0641 6.16676 100.21 4.82232 98.6736 12.5048C97.1371 20.1873 91.5673 24.7969 86.3816 22.108C81.1959 19.4191 77.9308 18.8429 77.9308 18.8429Z" fill="#0144B9" stroke-width="2px" style="animation-duration: 4.5s;"></path><path class="fillCls4" d="M65.8299 55.938C65.8299 55.938 51.6172 56.2952 44.3188 62.8254C37.0205 69.3555 10.3237 126.974 21.8475 134.273C33.3713 141.571 54.1141 130.239 54.1141 130.239L53.3458 141.571C53.3458 141.571 82.5394 151.174 104.819 144.836L110.388 117.179L113.077 106.616L118.839 69.9317C118.839 69.9317 114.422 60.1365 106.547 59.1762C98.6727 58.2159 95.2155 57.2555 95.2155 57.2555C95.2155 57.2555 85.2052 71.8831 75.241 66.4746C68.5188 62.8254 65.8299 55.938 65.8299 55.938Z" fill="#DEF4FF" stroke-width="2px" style="animation-duration: 4.5s;"></path><path class="fillCls5" d="M57.1874 109.113C57.1874 109.113 47.9684 109.305 38.9415 111.417L42.5907 109.881C42.5907 109.881 38.9415 111.417 37.2129 110.841C37.2129 110.841 44.8954 110.073 48.3525 103.159C51.8097 96.2444 54.4986 80.6873 54.4986 80.6873C54.4986 80.6873 73.5128 84.5285 75.0493 101.43C76.5858 118.332 57.1874 109.113 57.1874 109.113Z" fill="#C6E5F4" stroke-width="2px" style="animation-duration: 4.5s;"></path><path class="fillCls5" d="M89.6456 116.603C89.2615 116.603 83.3075 106.616 83.3075 106.616L75.4329 102.774L64.4854 119.292C60.26 125.822 54.114 130.239 54.114 130.239L53.3457 141.571C53.3457 141.571 58.0416 143.19 65.1172 144.66C66.4751 132.131 81.771 123.133 81.771 123.133C81.771 123.133 90.0297 116.603 89.6456 116.603Z" fill="#C6E5F4" stroke-width="2px" style="animation-duration: 4.5s;"></path><path class="fillCls1" d="M57.571 109.112C57.571 109.112 54.9301 117.815 64.4853 119.292L67.3662 115.258C67.3662 115.258 76.2011 113.338 76.5852 108.344C76.5852 108.344 82.1551 114.49 83.6916 113.722L84.6519 108.853C84.6519 108.853 77.2498 96.9932 76.2011 96.2442C74.8567 95.2839 68.9027 99.8934 68.9027 99.8934L57.571 109.112Z" fill="#FFDE99" stroke-width="2px" style="animation-duration: 4.5s;"></path><path class="fillCls6" d="M129.373 66.8589H88.8442C87.6054 66.8589 86.5088 67.6598 86.1323 68.841L70.3486 118.299C69.9184 119.645 70.9228 121.021 72.3364 121.021H111.957C113.196 121.021 114.293 120.22 114.669 119.039L130.729 68.7142C131.023 67.7981 130.338 66.8589 129.373 66.8589Z" fill="#241921" stroke-width="2px" style="animation-duration: 4.5s;"></path><path class="fillCls1" d="M122.251 95.839L117.753 100.255C117.753 100.255 110.491 106.495 108.117 107.628C108.117 107.628 107.942 111.187 110.875 109.547L108.812 111.584C108.812 111.584 108.311 112.587 111.052 113.144L110.747 114.202C110.747 114.202 110.506 115.428 112.45 115.595C112.494 115.598 112.506 115.66 112.464 115.679L112.821 117.133C112.821 117.133 111.793 118.063 117.523 117.632L125.019 113.901L126.582 111.123L126.73 108.098L128.311 104.966L127.738 102.085L129.78 96.8358L127.794 93.7071C127.794 93.7071 127.416 86.9119 128.791 84.3037C128.791 84.3037 125.482 82.7134 124.185 87.2865C122.891 91.8595 122.785 93.9933 122.785 93.9933L122.251 95.839Z" fill="#FFDE99" stroke-width="2px" style="animation-duration: 4.5s;"></path><path class="fillCls7" d="M104.942 89.7141H101.06L98.1523 93.0752L99.1261 96.4363H103.008L105.916 93.0752L104.942 89.7141Z" fill="#FFD3F5" stroke-width="2px" style="animation-duration: 4.5s;"></path><g class="idea9" style="animation-duration: 4.5s;"><path class="fillCls11" d="M136.471 43.7358C136.471 36.1821 130.392 30.0594 122.853 30.0004C115.255 29.9414 109 36.1378 109 43.7358C109 48.9143 111.862 53.4141 116.096 55.7598C116.878 56.1877 117.336 57.0139 117.336 57.8991V63.2546H128.12V57.8991C128.12 57.0139 128.593 56.1877 129.374 55.7451C133.609 53.4141 136.471 48.9143 136.471 43.7358Z" fill="#F9A23C" stroke-width="2px"></path><path class="fillCls10" d="M128.661 42.2745C130.258 42.2745 131.553 40.9799 131.553 39.3829C131.553 37.7859 130.258 36.4912 128.661 36.4912C127.064 36.4912 125.77 37.7859 125.77 39.3829C125.77 40.9799 127.064 42.2745 128.661 42.2745Z" fill="#FFDFBB" stroke-width="2px"></path><circle class="fillCls9" cx="122.616" cy="71.7682" r="1.34238" fill="#A2E6F2" stroke-width="2px"></circle><path class="fillCls8" d="M124.38 71.6046H121.223C119.408 71.6046 117.947 70.1293 117.947 68.3293H127.67C127.655 70.144 126.18 71.6046 124.38 71.6046Z" fill="#36C2DB" stroke-width="2px"></path><path class="fillCls8" d="M127.791 66.7807H117.7C117.213 66.7807 116.814 66.3823 116.814 65.8955C116.814 65.4086 117.213 65.0103 117.7 65.0103H127.791C128.278 65.0103 128.676 65.4086 128.676 65.8955C128.661 66.3823 128.263 66.7807 127.791 66.7807Z" fill="#36C2DB" stroke-width="2px"></path><path class="fillCls9" d="M127.791 65.0402H117.7C117.213 65.0402 116.814 64.6418 116.814 64.155C116.814 63.6681 117.213 63.2698 117.7 63.2698H127.791C128.278 63.2698 128.676 63.6681 128.676 64.155C128.661 64.6418 128.263 65.0402 127.791 65.0402Z" fill="#A2E6F2" stroke-width="2px"></path><path class="fillCls9" d="M127.791 68.5678H117.7C117.213 68.5678 116.814 68.1694 116.814 67.6826C116.814 67.1957 117.213 66.7974 117.7 66.7974H127.791C128.278 66.7974 128.676 67.1957 128.676 67.6826C128.661 68.1694 128.263 68.5678 127.791 68.5678Z" fill="#A2E6F2" stroke-width="2px"></path></g></svg>