<?xml version="1.0" encoding="UTF-8" standalone="no"?>
<!DOCTYPE svg PUBLIC "-//W3C//DTD SVG 1.1//EN"
 "http://www.w3.org/Graphics/SVG/1.1/DTD/svg11.dtd">
<!-- Generated by graphviz version 2.47.0 (20210316.0004)
 -->
<!-- Title: dependencies Pages: 1 -->
<svg width="2955pt" height="284pt"
 viewBox="0.00 0.00 2955.00 284.00" xmlns="http://www.w3.org/2000/svg" xmlns:xlink="http://www.w3.org/1999/xlink">
<g id="graph0" class="graph" transform="scale(1 1) rotate(0) translate(4 280)">
<title>dependencies</title>
<polygon fill="white" stroke="transparent" points="-4,4 -4,-280 2951,-280 2951,4 -4,4"/>
<text text-anchor="start" x="1452.51" y="-42.4" font-family="Times-12" font-weight="bold" font-size="14.00">Legend</text>
<polygon fill="#ffffb3" stroke="transparent" points="1239.5,-10 1239.5,-30 1259.5,-30 1259.5,-10 1239.5,-10"/>
<text text-anchor="start" x="1263.13" y="-15.4" font-family="Times-12" font-size="14.00"> &#160;Declarations</text>
<polygon fill="#8dd3c7" stroke="transparent" points="1352.5,-10 1352.5,-30 1372.5,-30 1372.5,-10 1352.5,-10"/>
<text text-anchor="start" x="1376.23" y="-15.4" font-family="Times-12" font-size="14.00"> &#160;Module</text>
<polygon fill="#80b1d3" stroke="transparent" points="1438.5,-10 1438.5,-30 1458.5,-30 1458.5,-10 1438.5,-10"/>
<text text-anchor="start" x="1462.28" y="-15.4" font-family="Times-12" font-size="14.00"> &#160;Bootstrap</text>
<polygon fill="#fdb462" stroke="transparent" points="1535.5,-10 1535.5,-30 1555.5,-30 1555.5,-10 1535.5,-10"/>
<text text-anchor="start" x="1559.17" y="-15.4" font-family="Times-12" font-size="14.00"> &#160;Providers</text>
<polygon fill="#fb8072" stroke="transparent" points="1631.5,-10 1631.5,-30 1651.5,-30 1651.5,-10 1631.5,-10"/>
<text text-anchor="start" x="1655.23" y="-15.4" font-family="Times-12" font-size="14.00"> &#160;Exports</text>
<g id="clust1" class="cluster">
<title>cluster_AppModule</title>
<polygon fill="none" stroke="black" stroke-dasharray="1,5" points="8,-70 8,-268 433,-268 433,-70 8,-70"/>
</g>
<g id="clust2" class="cluster">
<title>cluster_AppModule_declarations</title>
<polygon fill="none" stroke="black" points="303,-78 303,-130 425,-130 425,-78 303,-78"/>
</g>
<g id="clust4" class="cluster">
<title>cluster_AppModule_imports</title>
<polygon fill="none" stroke="black" points="16,-78 16,-130 295,-130 295,-78 16,-78"/>
</g>
<g id="clust6" class="cluster">
<title>cluster_AppModule_bootstrap</title>
<polygon fill="none" stroke="black" points="167,-208 167,-260 291,-260 291,-208 167,-208"/>
</g>
<g id="clust14" class="cluster">
<title>cluster_AuthModule</title>
<polygon fill="none" stroke="black" stroke-dasharray="1,5" points="441,-70 441,-195 743,-195 743,-70 441,-70"/>
</g>
<g id="clust15" class="cluster">
<title>cluster_AuthModule_declarations</title>
<polygon fill="none" stroke="black" points="605,-78 605,-130 735,-130 735,-78 605,-78"/>
</g>
<g id="clust17" class="cluster">
<title>cluster_AuthModule_imports</title>
<polygon fill="none" stroke="black" points="449,-78 449,-130 597,-130 597,-78 449,-78"/>
</g>
<g id="clust27" class="cluster">
<title>cluster_DashboardModule</title>
<polygon fill="none" stroke="black" stroke-dasharray="1,5" points="751,-70 751,-195 2939,-195 2939,-70 751,-70"/>
</g>
<g id="clust28" class="cluster">
<title>cluster_DashboardModule_declarations</title>
<polygon fill="none" stroke="black" points="949,-78 949,-130 2931,-130 2931,-78 949,-78"/>
</g>
<g id="clust42" class="cluster">
<title>cluster_DashboardModule_imports</title>
<polygon fill="none" stroke="black" points="759,-78 759,-130 941,-130 941,-78 759,-78"/>
</g>
<!-- AppComponent -->
<g id="node1" class="node">
<title>AppComponent</title>
<polygon fill="#ffffb3" stroke="black" points="416.94,-122 311.06,-122 311.06,-86 416.94,-86 416.94,-122"/>
<text text-anchor="middle" x="364" y="-99.8" font-family="Times,serif" font-size="14.00">AppComponent</text>
</g>
<!-- AppModule -->
<g id="node2" class="node">
<title>AppModule</title>
<polygon fill="#8dd3c7" stroke="black" points="270.66,-187 267.66,-191 246.66,-191 243.66,-187 187.34,-187 187.34,-151 270.66,-151 270.66,-187"/>
<text text-anchor="middle" x="229" y="-164.8" font-family="Times,serif" font-size="14.00">AppModule</text>
</g>
<!-- AppComponent&#45;&gt;AppModule -->
<g id="edge1" class="edge">
<title>AppComponent&#45;&gt;AppModule</title>
<path fill="none" stroke="black" d="M364,-122.11C364,-141.34 364,-169 364,-169 364,-169 280.97,-169 280.97,-169"/>
<polygon fill="black" stroke="black" points="280.97,-165.5 270.97,-169 280.97,-172.5 280.97,-165.5"/>
</g>
<!-- AppComponent  -->
<g id="node5" class="node">
<title>AppComponent </title>
<polygon fill="#80b1d3" stroke="black" points="283.44,-252 174.56,-252 174.56,-216 283.44,-216 283.44,-252"/>
<text text-anchor="middle" x="229" y="-229.8" font-family="Times,serif" font-size="14.00">AppComponent </text>
</g>
<!-- AppModule&#45;&gt;AppComponent  -->
<g id="edge4" class="edge">
<title>AppModule&#45;&gt;AppComponent </title>
<path fill="none" stroke="black" stroke-dasharray="1,5" d="M229,-187.11C229,-187.11 229,-205.99 229,-205.99"/>
<polygon fill="black" stroke="black" points="225.5,-205.99 229,-215.99 232.5,-205.99 225.5,-205.99"/>
</g>
<!-- AlertaComponent -->
<g id="node3" class="node">
<title>AlertaComponent</title>
<polygon fill="#8dd3c7" stroke="black" points="287.31,-122 284.31,-126 263.31,-126 260.31,-122 170.69,-122 170.69,-86 287.31,-86 287.31,-122"/>
<text text-anchor="middle" x="229" y="-99.8" font-family="Times,serif" font-size="14.00">AlertaComponent</text>
</g>
<!-- AlertaComponent&#45;&gt;AppModule -->
<g id="edge2" class="edge">
<title>AlertaComponent&#45;&gt;AppModule</title>
<path fill="none" stroke="black" d="M229,-122.11C229,-122.11 229,-140.99 229,-140.99"/>
<polygon fill="black" stroke="black" points="225.5,-140.99 229,-150.99 232.5,-140.99 225.5,-140.99"/>
</g>
<!-- AppRoutingModule -->
<g id="node4" class="node">
<title>AppRoutingModule</title>
<polygon fill="#8dd3c7" stroke="black" points="152.27,-122 149.27,-126 128.27,-126 125.27,-122 23.73,-122 23.73,-86 152.27,-86 152.27,-122"/>
<text text-anchor="middle" x="88" y="-99.8" font-family="Times,serif" font-size="14.00">AppRoutingModule</text>
</g>
<!-- AppRoutingModule&#45;&gt;AppModule -->
<g id="edge3" class="edge">
<title>AppRoutingModule&#45;&gt;AppModule</title>
<path fill="none" stroke="black" d="M88,-122.11C88,-141.34 88,-169 88,-169 88,-169 177.08,-169 177.08,-169"/>
<polygon fill="black" stroke="black" points="177.08,-172.5 187.08,-169 177.08,-165.5 177.08,-172.5"/>
</g>
<!-- LoginComponent -->
<g id="node6" class="node">
<title>LoginComponent</title>
<polygon fill="#ffffb3" stroke="black" points="727.28,-122 612.72,-122 612.72,-86 727.28,-86 727.28,-122"/>
<text text-anchor="middle" x="670" y="-99.8" font-family="Times,serif" font-size="14.00">LoginComponent</text>
</g>
<!-- AuthModule -->
<g id="node7" class="node">
<title>AuthModule</title>
<polygon fill="#8dd3c7" stroke="black" points="639.55,-187 636.55,-191 615.55,-191 612.55,-187 552.45,-187 552.45,-151 639.55,-151 639.55,-187"/>
<text text-anchor="middle" x="596" y="-164.8" font-family="Times,serif" font-size="14.00">AuthModule</text>
</g>
<!-- LoginComponent&#45;&gt;AuthModule -->
<g id="edge5" class="edge">
<title>LoginComponent&#45;&gt;AuthModule</title>
<path fill="none" stroke="black" d="M626.19,-122.11C626.19,-122.11 626.19,-140.99 626.19,-140.99"/>
<polygon fill="black" stroke="black" points="622.69,-140.99 626.19,-150.99 629.69,-140.99 622.69,-140.99"/>
</g>
<!-- AuthRoutingModule -->
<g id="node8" class="node">
<title>AuthRoutingModule</title>
<polygon fill="#8dd3c7" stroke="black" points="589.17,-122 586.17,-126 565.17,-126 562.17,-122 456.83,-122 456.83,-86 589.17,-86 589.17,-122"/>
<text text-anchor="middle" x="523" y="-99.8" font-family="Times,serif" font-size="14.00">AuthRoutingModule</text>
</g>
<!-- AuthRoutingModule&#45;&gt;AuthModule -->
<g id="edge6" class="edge">
<title>AuthRoutingModule&#45;&gt;AuthModule</title>
<path fill="none" stroke="black" d="M570.78,-122.11C570.78,-122.11 570.78,-140.99 570.78,-140.99"/>
<polygon fill="black" stroke="black" points="567.28,-140.99 570.78,-150.99 574.28,-140.99 567.28,-140.99"/>
</g>
<!-- BancosComponent -->
<g id="node9" class="node">
<title>BancosComponent</title>
<polygon fill="#ffffb3" stroke="black" points="2923.04,-122 2800.96,-122 2800.96,-86 2923.04,-86 2923.04,-122"/>
<text text-anchor="middle" x="2862" y="-99.8" font-family="Times,serif" font-size="14.00">BancosComponent</text>
</g>
<!-- DashboardModule -->
<g id="node22" class="node">
<title>DashboardModule</title>
<polygon fill="#8dd3c7" stroke="black" points="1921.19,-187 1918.19,-191 1897.19,-191 1894.19,-187 1800.81,-187 1800.81,-151 1921.19,-151 1921.19,-187"/>
<text text-anchor="middle" x="1861" y="-164.8" font-family="Times,serif" font-size="14.00">DashboardModule</text>
</g>
<!-- BancosComponent&#45;&gt;DashboardModule -->
<g id="edge7" class="edge">
<title>BancosComponent&#45;&gt;DashboardModule</title>
<path fill="none" stroke="black" d="M2862,-122.09C2862,-145.13 2862,-182 2862,-182 2862,-182 1931.36,-182 1931.36,-182"/>
<polygon fill="black" stroke="black" points="1931.36,-178.5 1921.36,-182 1931.36,-185.5 1931.36,-178.5"/>
</g>
<!-- BodyComponent -->
<g id="node10" class="node">
<title>BodyComponent</title>
<polygon fill="#ffffb3" stroke="black" points="2782.67,-122 2671.33,-122 2671.33,-86 2782.67,-86 2782.67,-122"/>
<text text-anchor="middle" x="2727" y="-99.8" font-family="Times,serif" font-size="14.00">BodyComponent</text>
</g>
<!-- BodyComponent&#45;&gt;DashboardModule -->
<g id="edge8" class="edge">
<title>BodyComponent&#45;&gt;DashboardModule</title>
<path fill="none" stroke="black" d="M2727,-122.04C2727,-143.66 2727,-177 2727,-177 2727,-177 1931.21,-177 1931.21,-177"/>
<polygon fill="black" stroke="black" points="1931.21,-173.5 1921.21,-177 1931.21,-180.5 1931.21,-173.5"/>
</g>
<!-- DashboardLayoutComponent -->
<g id="node11" class="node">
<title>DashboardLayoutComponent</title>
<polygon fill="#ffffb3" stroke="black" points="2652.63,-122 2471.37,-122 2471.37,-86 2652.63,-86 2652.63,-122"/>
<text text-anchor="middle" x="2562" y="-99.8" font-family="Times,serif" font-size="14.00">DashboardLayoutComponent</text>
</g>
<!-- DashboardLayoutComponent&#45;&gt;DashboardModule -->
<g id="edge9" class="edge">
<title>DashboardLayoutComponent&#45;&gt;DashboardModule</title>
<path fill="none" stroke="black" d="M2562,-122.22C2562,-142.37 2562,-172 2562,-172 2562,-172 1931.37,-172 1931.37,-172"/>
<polygon fill="black" stroke="black" points="1931.37,-168.5 1921.37,-172 1931.37,-175.5 1931.37,-168.5"/>
</g>
<!-- EstudiantesComponent -->
<g id="node12" class="node">
<title>EstudiantesComponent</title>
<polygon fill="#ffffb3" stroke="black" points="2452.88,-122 2307.12,-122 2307.12,-86 2452.88,-86 2452.88,-122"/>
<text text-anchor="middle" x="2380" y="-99.8" font-family="Times,serif" font-size="14.00">EstudiantesComponent</text>
</g>
<!-- EstudiantesComponent&#45;&gt;DashboardModule -->
<g id="edge10" class="edge">
<title>EstudiantesComponent&#45;&gt;DashboardModule</title>
<path fill="none" stroke="black" d="M2380,-122.22C2380,-140.83 2380,-167 2380,-167 2380,-167 1931.3,-167 1931.3,-167"/>
<polygon fill="black" stroke="black" points="1931.3,-163.5 1921.3,-167 1931.3,-170.5 1931.3,-163.5"/>
</g>
<!-- MatriculasComponent -->
<g id="node13" class="node">
<title>MatriculasComponent</title>
<polygon fill="#ffffb3" stroke="black" points="2288.7,-122 2147.3,-122 2147.3,-86 2288.7,-86 2288.7,-122"/>
<text text-anchor="middle" x="2218" y="-99.8" font-family="Times,serif" font-size="14.00">MatriculasComponent</text>
</g>
<!-- MatriculasComponent&#45;&gt;DashboardModule -->
<g id="edge11" class="edge">
<title>MatriculasComponent&#45;&gt;DashboardModule</title>
<path fill="none" stroke="black" d="M2218,-122.03C2218,-139.06 2218,-162 2218,-162 2218,-162 1931.16,-162 1931.16,-162"/>
<polygon fill="black" stroke="black" points="1931.16,-158.5 1921.16,-162 1931.16,-165.5 1931.16,-158.5"/>
</g>
<!-- NavbarComponent -->
<g id="node14" class="node">
<title>NavbarComponent</title>
<polygon fill="#ffffb3" stroke="black" points="2129.03,-122 2006.97,-122 2006.97,-86 2129.03,-86 2129.03,-122"/>
<text text-anchor="middle" x="2068" y="-99.8" font-family="Times,serif" font-size="14.00">NavbarComponent</text>
</g>
<!-- NavbarComponent&#45;&gt;DashboardModule -->
<g id="edge12" class="edge">
<title>NavbarComponent&#45;&gt;DashboardModule</title>
<path fill="none" stroke="black" d="M2068,-122.24C2068,-137.57 2068,-157 2068,-157 2068,-157 1931.15,-157 1931.15,-157"/>
<polygon fill="black" stroke="black" points="1931.15,-153.5 1921.15,-157 1931.15,-160.5 1931.15,-153.5"/>
</g>
<!-- PadresComponent -->
<g id="node15" class="node">
<title>PadresComponent</title>
<polygon fill="#ffffb3" stroke="black" points="1988.15,-122 1869.85,-122 1869.85,-86 1988.15,-86 1988.15,-122"/>
<text text-anchor="middle" x="1929" y="-99.8" font-family="Times,serif" font-size="14.00">PadresComponent</text>
</g>
<!-- PadresComponent&#45;&gt;DashboardModule -->
<g id="edge13" class="edge">
<title>PadresComponent&#45;&gt;DashboardModule</title>
<path fill="none" stroke="black" d="M1895.39,-122.11C1895.39,-122.11 1895.39,-140.99 1895.39,-140.99"/>
<polygon fill="black" stroke="black" points="1891.89,-140.99 1895.39,-150.99 1898.89,-140.99 1891.89,-140.99"/>
</g>
<!-- PagosComponent -->
<g id="node16" class="node">
<title>PagosComponent</title>
<polygon fill="#ffffb3" stroke="black" points="1851.27,-122 1736.73,-122 1736.73,-86 1851.27,-86 1851.27,-122"/>
<text text-anchor="middle" x="1794" y="-99.8" font-family="Times,serif" font-size="14.00">PagosComponent</text>
</g>
<!-- PagosComponent&#45;&gt;DashboardModule -->
<g id="edge14" class="edge">
<title>PagosComponent&#45;&gt;DashboardModule</title>
<path fill="none" stroke="black" d="M1826.15,-122.11C1826.15,-122.11 1826.15,-140.99 1826.15,-140.99"/>
<polygon fill="black" stroke="black" points="1822.65,-140.99 1826.15,-150.99 1829.65,-140.99 1822.65,-140.99"/>
</g>
<!-- PanelControlComponent -->
<g id="node17" class="node">
<title>PanelControlComponent</title>
<polygon fill="#ffffb3" stroke="black" points="1718.71,-122 1563.29,-122 1563.29,-86 1718.71,-86 1718.71,-122"/>
<text text-anchor="middle" x="1641" y="-99.8" font-family="Times,serif" font-size="14.00">PanelControlComponent</text>
</g>
<!-- PanelControlComponent&#45;&gt;DashboardModule -->
<g id="edge15" class="edge">
<title>PanelControlComponent&#45;&gt;DashboardModule</title>
<path fill="none" stroke="black" d="M1641,-122.24C1641,-137.57 1641,-157 1641,-157 1641,-157 1790.88,-157 1790.88,-157"/>
<polygon fill="black" stroke="black" points="1790.88,-160.5 1800.88,-157 1790.88,-153.5 1790.88,-160.5"/>
</g>
<!-- SaludComponent -->
<g id="node18" class="node">
<title>SaludComponent</title>
<polygon fill="#ffffb3" stroke="black" points="1545.72,-122 1432.28,-122 1432.28,-86 1545.72,-86 1545.72,-122"/>
<text text-anchor="middle" x="1489" y="-99.8" font-family="Times,serif" font-size="14.00">SaludComponent</text>
</g>
<!-- SaludComponent&#45;&gt;DashboardModule -->
<g id="edge16" class="edge">
<title>SaludComponent&#45;&gt;DashboardModule</title>
<path fill="none" stroke="black" d="M1489,-122.03C1489,-139.06 1489,-162 1489,-162 1489,-162 1790.82,-162 1790.82,-162"/>
<polygon fill="black" stroke="black" points="1790.82,-165.5 1800.82,-162 1790.82,-158.5 1790.82,-165.5"/>
</g>
<!-- SidenavComponent -->
<g id="node19" class="node">
<title>SidenavComponent</title>
<polygon fill="#ffffb3" stroke="black" points="1414.44,-122 1287.56,-122 1287.56,-86 1414.44,-86 1414.44,-122"/>
<text text-anchor="middle" x="1351" y="-99.8" font-family="Times,serif" font-size="14.00">SidenavComponent</text>
</g>
<!-- SidenavComponent&#45;&gt;DashboardModule -->
<g id="edge17" class="edge">
<title>SidenavComponent&#45;&gt;DashboardModule</title>
<path fill="none" stroke="black" d="M1351,-122.22C1351,-140.83 1351,-167 1351,-167 1351,-167 1790.75,-167 1790.75,-167"/>
<polygon fill="black" stroke="black" points="1790.75,-170.5 1800.75,-167 1790.75,-163.5 1790.75,-170.5"/>
</g>
<!-- SublevelMenuComponent -->
<g id="node20" class="node">
<title>SublevelMenuComponent</title>
<polygon fill="#ffffb3" stroke="black" points="1269.48,-122 1106.52,-122 1106.52,-86 1269.48,-86 1269.48,-122"/>
<text text-anchor="middle" x="1188" y="-99.8" font-family="Times,serif" font-size="14.00">SublevelMenuComponent</text>
</g>
<!-- SublevelMenuComponent&#45;&gt;DashboardModule -->
<g id="edge18" class="edge">
<title>SublevelMenuComponent&#45;&gt;DashboardModule</title>
<path fill="none" stroke="black" d="M1188,-122.22C1188,-142.37 1188,-172 1188,-172 1188,-172 1790.68,-172 1790.68,-172"/>
<polygon fill="black" stroke="black" points="1790.68,-175.5 1800.68,-172 1790.68,-168.5 1790.68,-175.5"/>
</g>
<!-- UsuariosComponent -->
<g id="node21" class="node">
<title>UsuariosComponent</title>
<polygon fill="#ffffb3" stroke="black" points="1088.59,-122 957.41,-122 957.41,-86 1088.59,-86 1088.59,-122"/>
<text text-anchor="middle" x="1023" y="-99.8" font-family="Times,serif" font-size="14.00">UsuariosComponent</text>
</g>
<!-- UsuariosComponent&#45;&gt;DashboardModule -->
<g id="edge19" class="edge">
<title>UsuariosComponent&#45;&gt;DashboardModule</title>
<path fill="none" stroke="black" d="M1023,-122.04C1023,-143.66 1023,-177 1023,-177 1023,-177 1790.73,-177 1790.73,-177"/>
<polygon fill="black" stroke="black" points="1790.73,-180.5 1800.73,-177 1790.73,-173.5 1790.73,-180.5"/>
</g>
<!-- DashboardRoutingModule -->
<g id="node23" class="node">
<title>DashboardRoutingModule</title>
<polygon fill="#8dd3c7" stroke="black" points="932.81,-122 929.81,-126 908.81,-126 905.81,-122 767.19,-122 767.19,-86 932.81,-86 932.81,-122"/>
<text text-anchor="middle" x="850" y="-99.8" font-family="Times,serif" font-size="14.00">DashboardRoutingModule</text>
</g>
<!-- DashboardRoutingModule&#45;&gt;DashboardModule -->
<g id="edge20" class="edge">
<title>DashboardRoutingModule&#45;&gt;DashboardModule</title>
<path fill="none" stroke="black" d="M850,-122.09C850,-145.13 850,-182 850,-182 850,-182 1790.79,-182 1790.79,-182"/>
<polygon fill="black" stroke="black" points="1790.79,-185.5 1800.79,-182 1790.78,-178.5 1790.79,-185.5"/>
</g>
</g>
</svg>
